<?xml version="1.0" encoding="UTF-8"?>
<svg version="1.1" xmlns="http://www.w3.org/2000/svg" width="191" height="191">
<path d="M0 0 C1.12019531 -0.00128906 2.24039063 -0.00257812 3.39453125 -0.00390625 C4.57402344 -0.00003906 5.75351562 0.00382813 6.96875 0.0078125 C8.73798828 0.00201172 8.73798828 0.00201172 10.54296875 -0.00390625 C12.22326172 -0.00197266 12.22326172 -0.00197266 13.9375 0 C14.97326172 0.00112793 16.00902344 0.00225586 17.07617188 0.00341797 C19.46875 0.1328125 19.46875 0.1328125 20.46875 1.1328125 C20.377834 3.83389754 20.23134234 6.50211561 20.03125 9.1953125 C19.97904297 9.95392578 19.92683594 10.71253906 19.87304688 11.49414062 C19.74299165 13.37402972 19.60646962 15.25346935 19.46875 17.1328125 C23.36595965 16.43868982 27.01351976 15.3370694 30.78125 14.1328125 C46.37470016 9.6588802 60.4423469 11.38070968 75.97265625 15.546875 C78.52819453 16.2470774 78.52819453 16.2470774 81.46875 16.1328125 C81.45714844 15.39675781 81.44554688 14.66070312 81.43359375 13.90234375 C81.42457031 12.92652344 81.41554688 11.95070313 81.40625 10.9453125 C81.39464844 9.98238281 81.38304688 9.01945312 81.37109375 8.02734375 C81.46406701 5.27161621 81.89607362 2.82181545 82.46875 0.1328125 C86.61456887 0.10394499 90.76036216 0.08605923 94.90625 0.0703125 C96.09025391 0.06193359 97.27425781 0.05355469 98.49414062 0.04492188 C99.61884766 0.04169922 100.74355469 0.03847656 101.90234375 0.03515625 C102.94447021 0.02991943 103.98659668 0.02468262 105.06030273 0.01928711 C107.46875 0.1328125 107.46875 0.1328125 108.46875 1.1328125 C108.55743299 4.08986571 108.58395296 7.02346306 108.56640625 9.98046875 C108.56428383 11.31010902 108.56428383 11.31010902 108.56211853 12.66661072 C108.55650215 15.50954504 108.54394691 18.35240181 108.53125 21.1953125 C108.52623711 23.11783741 108.52167384 25.04036354 108.51757812 26.96289062 C108.50652741 31.68622799 108.48925183 36.40950708 108.46875 41.1328125 C109.39796265 41.29535522 109.39796265 41.29535522 110.34594727 41.46118164 C113.21593753 42.36921421 113.99314007 44.08767209 115.41210938 46.63671875 C115.74017578 47.27480469 116.06824219 47.91289063 116.40625 48.5703125 C116.75107422 49.240625 117.09589844 49.9109375 117.45117188 50.6015625 C126.41909939 68.80561723 129.08562011 89.79817035 122.73193359 109.33081055 C115.4539629 129.59317438 101.66636021 145.2015268 82.34179688 154.57128906 C64.27577205 162.9087856 44.51636963 163.14769363 25.65625 157.25390625 C6.72189382 150.18310761 -8.05601128 136.20451003 -16.9765625 118.21875 C-24.97488214 100.06687489 -26.54334526 79.87873688 -19.53125 61.1328125 C-12.66106448 44.38153692 -12.66106448 44.38153692 -8.41479492 39.89819336 C-5.91069307 36.22172393 -6.04145327 33.08896211 -6.17578125 28.8046875 C-6.18381271 28.01507629 -6.19184418 27.22546509 -6.20011902 26.41192627 C-6.22901972 23.90152548 -6.28528579 21.39268327 -6.34375 18.8828125 C-6.38621566 16.35886507 -6.42304334 13.83495061 -6.45524597 11.31085205 C-6.47700238 9.74266212 -6.50572572 8.17455095 -6.54194641 6.60662842 C-6.57557278 4.78232951 -6.55859738 2.95721634 -6.53125 1.1328125 C-4.78579395 -0.61264355 -2.37000783 0.0025809 0 0 Z " fill="#F3F2F2" transform="translate(44.53125,14.8671875)"/>
<path d="M0 0 C1.12019531 -0.00128906 2.24039063 -0.00257812 3.39453125 -0.00390625 C4.57402344 -0.00003906 5.75351562 0.00382813 6.96875 0.0078125 C8.73798828 0.00201172 8.73798828 0.00201172 10.54296875 -0.00390625 C12.22326172 -0.00197266 12.22326172 -0.00197266 13.9375 0 C14.97326172 0.00112793 16.00902344 0.00225586 17.07617188 0.00341797 C19.46875 0.1328125 19.46875 0.1328125 20.46875 1.1328125 C20.377834 3.83389754 20.23134234 6.50211561 20.03125 9.1953125 C19.97904297 9.95392578 19.92683594 10.71253906 19.87304688 11.49414062 C19.74299165 13.37402972 19.60646962 15.25346935 19.46875 17.1328125 C23.36595965 16.43868982 27.01351976 15.3370694 30.78125 14.1328125 C46.37470016 9.6588802 60.4423469 11.38070968 75.97265625 15.546875 C78.52819453 16.2470774 78.52819453 16.2470774 81.46875 16.1328125 C81.45714844 15.39675781 81.44554688 14.66070312 81.43359375 13.90234375 C81.42457031 12.92652344 81.41554688 11.95070313 81.40625 10.9453125 C81.39464844 9.98238281 81.38304688 9.01945312 81.37109375 8.02734375 C81.46406701 5.27161621 81.89607362 2.82181545 82.46875 0.1328125 C86.61456887 0.10394499 90.76036216 0.08605923 94.90625 0.0703125 C96.09025391 0.06193359 97.27425781 0.05355469 98.49414062 0.04492188 C99.61884766 0.04169922 100.74355469 0.03847656 101.90234375 0.03515625 C102.94447021 0.02991943 103.98659668 0.02468262 105.06030273 0.01928711 C107.46875 0.1328125 107.46875 0.1328125 108.46875 1.1328125 C108.59476992 3.51363435 108.65742979 5.86374595 108.671875 8.24609375 C108.67757507 8.97088425 108.68327515 9.69567474 108.68914795 10.44242859 C108.69862225 11.98675064 108.70514152 13.53109312 108.70898438 15.07543945 C108.71855373 17.39768201 108.74949236 19.71898635 108.78125 22.04101562 C108.88988655 37.05396034 106.62811578 49.90874082 95.84375 61.1328125 C94.06314784 62.87161649 92.71640452 64.02464156 90.4296875 65.0234375 C87.7932542 66.5149655 87.09580611 68.20970359 85.71875 70.8828125 C81.2104407 78.72433294 74.11053226 83.4952847 65.46875 86.1328125 C63.80228989 86.15905111 62.13515987 86.1620689 60.46875 86.1328125 C60.5211541 90.42543111 60.61635481 94.71611834 60.71875 99.0078125 C60.73292969 100.21179688 60.74710937 101.41578125 60.76171875 102.65625 C61.07319848 114.11870391 63.82890153 123.62114241 72.21875 131.8203125 C75.93014196 134.46111063 79.15838719 135.7207971 83.46875 137.1328125 C83.13875 138.1228125 82.80875 139.1128125 82.46875 140.1328125 C74.68464135 140.60939058 68.94029705 139.57886493 62.90625 134.2578125 C52.23158094 122.88435021 52.30134628 109.15193005 52.40625 94.5703125 C52.41076172 93.37083984 52.41527344 92.17136719 52.41992188 90.93554688 C52.43161231 88.00124891 52.44799862 85.06705801 52.46875 82.1328125 C51.47875 82.1328125 50.48875 82.1328125 49.46875 82.1328125 C49.5001709 82.9578125 49.5315918 83.7828125 49.56396484 84.6328125 C50.56299789 114.84829291 50.56299789 114.84829291 43.46875 128.1328125 C43.13875 128.7928125 42.80875 129.4528125 42.46875 130.1328125 C41.80875 130.1328125 41.14875 130.1328125 40.46875 130.1328125 C40.2625 130.6896875 40.05625 131.2465625 39.84375 131.8203125 C37.41346007 135.9076183 33.95489354 138.63743132 29.46875 140.1328125 C22.41813918 140.60750709 22.41813918 140.60750709 19.46875 139.1328125 C19.46875 138.4728125 19.46875 137.8128125 19.46875 137.1328125 C20.12875 136.9265625 20.78875 136.7203125 21.46875 136.5078125 C24.97929439 134.89881299 27.69420542 132.77671237 30.69921875 130.375 C32.46875 129.1328125 32.46875 129.1328125 34.46875 129.1328125 C36.33257956 125.54852488 37.88630568 121.84811655 39.46875 118.1328125 C39.79875 117.4728125 40.12875 116.8128125 40.46875 116.1328125 C40.55434118 113.95456289 40.57588412 111.77365995 40.56640625 109.59375 C40.56318359 108.29179688 40.55996094 106.98984375 40.55664062 105.6484375 C40.54828466 104.26822851 40.53981971 102.88802018 40.53125 101.5078125 C40.52623501 100.11979324 40.5216721 98.73177228 40.51757812 97.34375 C40.50575976 93.94006118 40.48928434 90.53645811 40.46875 87.1328125 C39.58759521 86.80958008 38.70644043 86.48634766 37.79858398 86.15332031 C36.63657471 85.71858398 35.47456543 85.28384766 34.27734375 84.8359375 C33.12806396 84.40958008 31.97878418 83.98322266 30.79467773 83.54394531 C22.97847682 80.22766833 18.02450216 75.29916339 13.7578125 68.05078125 C12.45400873 65.84770953 12.45400873 65.84770953 9.46875 64.1328125 C9.46875 63.4728125 9.46875 62.8128125 9.46875 62.1328125 C8.71980469 61.92398438 7.97085938 61.71515625 7.19921875 61.5 C3.62222684 59.7089454 2.67785986 57.744165 0.78125 54.2578125 C0.19988281 53.20851562 -0.38148437 52.15921875 -0.98046875 51.078125 C-1.49222656 50.10617188 -2.00398438 49.13421875 -2.53125 48.1328125 C-2.90636719 47.48183594 -3.28148437 46.83085938 -3.66796875 46.16015625 C-7.75829144 36.55437582 -6.71205397 23.87929976 -6.71875 13.6953125 C-6.71955566 12.479646 -6.72036133 11.26397949 -6.72119141 10.01147461 C-6.6572394 0.00724964 -6.6572394 0.00724964 0 0 Z " fill="#F1ECEE" transform="translate(44.53125,14.8671875)"/>
<path d="M0 0 C0.66 0.33 1.32 0.66 2 1 C2.41656211 2.56210791 2.82993995 4.12511069 3.23046875 5.69140625 C4.59167121 9.77501362 6.6811959 13.51536031 8.66015625 17.328125 C10 20 10 20 11 23 C12.11375 23.433125 12.11375 23.433125 13.25 23.875 C18.56857313 26.05077992 21.183126 30.25855688 24.1875 34.9375 C29.39337683 42.52611005 36.62012046 45.94432316 45.28515625 48.45703125 C47 49 47 49 48 50 C48.24264392 54.06024152 48.22854511 58.12402795 48.24023438 62.19091797 C48.24989548 64.2279615 48.28088334 66.26397673 48.3125 68.30078125 C48.32023437 70.23244141 48.32023437 70.23244141 48.328125 72.203125 C48.34214355 73.97671387 48.34214355 73.97671387 48.35644531 75.78613281 C47.96542397 79.31175261 46.98727167 81.10953802 45 84 C44.71125 84.825 44.4225 85.65 44.125 86.5 C41.55968775 92.2006939 35.3695666 96.89355093 30 100 C28.68 100 27.36 100 26 100 C26 100.66 26 101.32 26 102 C26.99 102.495 26.99 102.495 28 103 C23.89170452 103.98599092 21.82665522 104.47712986 18.08984375 102.3203125 C4.56987154 92.16751415 -5.93995876 78.02690046 -9.58203125 61.33203125 C-10.15367205 56.77493214 -10.18425265 52.27600335 -10.1875 47.6875 C-10.19974609 46.78837891 -10.21199219 45.88925781 -10.22460938 44.96289062 C-10.2375305 39.00625298 -9.48803796 33.76982309 -8 28 C-7.34 28 -6.68 28 -6 28 C-5.9175 26.824375 -5.835 25.64875 -5.75 24.4375 C-5.37361537 21.24665715 -4.67236056 19.13480971 -2.9375 16.4375 C-0.76832235 12.58895901 -0.64555297 10.34197616 -1 6 C-1.99 6.33 -2.98 6.66 -4 7 C-2.92598892 4.08482708 -2.22189824 2.22189824 0 0 Z " fill="#F3F2F2" transform="translate(38,52)"/>
<path d="M0 0 C0.66 0 1.32 0 2 0 C3.07658749 4.39606557 3.33671914 6.36139473 1.1875 10.4375 C0.81496094 11.0046875 0.44242188 11.571875 0.05859375 12.15625 C-1.72265478 15.25864597 -2.26698708 18.51818864 -3 22 C-3.66 22 -4.32 22 -5 22 C-5.83322553 28.55248557 -6.18271889 34.95978525 -6.1875 41.5625 C-6.19974609 42.45646484 -6.21199219 43.35042969 -6.22460938 44.27148438 C-6.26412689 62.27830008 2.61796605 77.46590598 15 90 C27.31238198 101.87079866 43.22103848 108.43546015 60.3125 108.3125 C61.14281738 108.30686035 61.97313477 108.3012207 62.82861328 108.29541016 C76.89264588 108.01921585 89.52173622 103.06580698 101 95 C101.66 95 102.32 95 103 95 C103.226875 94.4225 103.45375 93.845 103.6875 93.25 C105 91 105 91 107.1875 89.375 C112.32908875 85.03321394 116.14400432 79.07778391 119 73 C119.66 73 120.32 73 121 73 C121.18175781 72.38253906 121.36351562 71.76507813 121.55078125 71.12890625 C121.80214844 70.28199219 122.05351562 69.43507813 122.3125 68.5625 C122.55613281 67.73878906 122.79976562 66.91507812 123.05078125 66.06640625 C123.57234781 64.38151018 124.11729467 62.70116175 124.76171875 61.05932617 C127.16089248 54.71651063 127.46697261 48.92967747 127.375 42.1875 C127.3608606 40.59301025 127.3608606 40.59301025 127.34643555 38.96630859 C127.13699046 28.09352197 125.16719865 19.88234661 120.0078125 10.3359375 C118.45404911 6.73457894 118.64194557 3.86698783 119 0 C120.75 0.0546875 120.75 0.0546875 123 1 C124.54976005 3.37912383 125.78844571 5.57985379 127 8.125 C127.34740234 8.85001709 127.69480469 9.57503418 128.05273438 10.32202148 C136.48431842 28.50015286 138.39141931 49.12314201 131.54296875 68.203125 C123.26817076 89.22759568 108.41333391 104.26456908 87.8671875 113.23828125 C70.40934918 120.36020274 50.21067111 119.73130921 32.6875 113.1875 C13.85489126 104.93850609 -0.45921801 90.94060702 -8.75 72.125 C-15.79312349 53.97094242 -16.78043723 33.91821819 -9.05761719 15.78759766 C-3.41689751 3.41689751 -3.41689751 3.41689751 0 0 Z " fill="#FC1745" transform="translate(35,58)"/>
<path d="M0 0 C4.14581887 -0.02886751 8.29161216 -0.04675327 12.4375 -0.0625 C13.62150391 -0.07087891 14.80550781 -0.07925781 16.02539062 -0.08789062 C17.15009766 -0.09111328 18.27480469 -0.09433594 19.43359375 -0.09765625 C20.47572021 -0.10289307 21.51784668 -0.10812988 22.59155273 -0.11352539 C25 0 25 0 26 1 C26.12601992 3.38082185 26.18867979 5.73093345 26.203125 8.11328125 C26.20882507 8.83807175 26.21452515 9.56286224 26.22039795 10.30961609 C26.22987225 11.85393814 26.23639152 13.39828062 26.24023438 14.94262695 C26.24980373 17.26486951 26.28074236 19.58617385 26.3125 21.90820312 C26.42113655 36.92114784 24.15936578 49.77592832 13.375 61 C11.59439784 62.73880399 10.24765452 63.89182906 7.9609375 64.890625 C5.3245042 66.382153 4.62705611 68.07689109 3.25 70.75 C-1.2583093 78.59152044 -8.35821774 83.3624722 -17 86 C-18.66646011 86.02623861 -20.33359013 86.0292564 -22 86 C-21.9475959 90.29261861 -21.85239519 94.58330584 -21.75 98.875 C-21.73582031 100.07898438 -21.72164063 101.28296875 -21.70703125 102.5234375 C-21.39555152 113.98589141 -18.63984847 123.48832991 -10.25 131.6875 C-6.53860804 134.32829813 -3.31036281 135.5879846 1 137 C0.67 137.99 0.34 138.98 0 140 C-7.78410865 140.47657808 -13.52845295 139.44605243 -19.5625 134.125 C-29.2460391 123.3774313 -29.82091332 112.34675043 -29.375 98.6875 C-29.34482109 97.060597 -29.31745945 95.4336392 -29.29296875 93.80664062 C-29.2276924 89.86970886 -29.12463157 85.93548142 -29 82 C-28.24726807 81.80301514 -27.49453613 81.60603027 -26.71899414 81.40307617 C-25.23580688 81.0082605 -25.23580688 81.0082605 -23.72265625 80.60546875 C-22.74304932 80.34660889 -21.76344238 80.08774902 -20.75415039 79.82104492 C-17.62512896 78.88824649 -14.87006513 77.54541969 -12 76 C-11.34 76 -10.68 76 -10 76 C-9.7525 75.401875 -9.505 74.80375 -9.25 74.1875 C-8 72 -8 72 -6.03024292 70.63822937 C-2.37242843 67.68669137 -1.83978488 63.47068589 -1 59 C-0.64832949 54.78567671 -0.67153784 50.6129173 -0.7421875 46.38671875 C-0.74880402 45.21414017 -0.75542053 44.04156158 -0.76223755 42.83345032 C-0.78548197 39.11785634 -0.82918175 35.40287814 -0.875 31.6875 C-0.91012538 27.95434527 -0.94089689 24.22122457 -0.96633911 20.48799133 C-0.98324871 18.1729839 -1.00633471 15.85801125 -1.03634644 13.5431366 C-1.04610504 12.49467056 -1.05586365 11.44620453 -1.06591797 10.3659668 C-1.07718719 9.4479277 -1.08845642 8.52988861 -1.10006714 7.58403015 C-0.99834548 4.95727547 -0.58615638 2.55870301 0 0 Z " fill="#FD1845" transform="translate(127,15)"/>
<path d="M0 0 C1.12019531 -0.00128906 2.24039063 -0.00257812 3.39453125 -0.00390625 C4.57402344 -0.00003906 5.75351562 0.00382813 6.96875 0.0078125 C8.73798828 0.00201172 8.73798828 0.00201172 10.54296875 -0.00390625 C12.22326172 -0.00197266 12.22326172 -0.00197266 13.9375 0 C14.97326172 0.00112793 16.00902344 0.00225586 17.07617188 0.00341797 C19.46875 0.1328125 19.46875 0.1328125 20.46875 1.1328125 C20.5520121 2.89603221 20.56509021 4.66260987 20.55053711 6.42773438 C20.5440062 7.55981323 20.53747528 8.69189209 20.53074646 9.85827637 C20.51931107 11.09356079 20.50787567 12.32884521 20.49609375 13.6015625 C20.48343757 16.20051945 20.47107735 18.79947786 20.45898438 21.3984375 C20.43532181 25.50850819 20.40683159 29.61851794 20.37280273 33.72851562 C20.34063043 37.68616405 20.32477473 41.64381606 20.30859375 45.6015625 C20.29513412 46.82065308 20.2816745 48.03974365 20.26780701 49.29577637 C20.24860034 55.87447314 20.47264276 61.83201701 22.46875 68.1328125 C23.95375 68.6278125 23.95375 68.6278125 25.46875 69.1328125 C25.901875 69.8959375 26.335 70.6590625 26.78125 71.4453125 C29.65280253 76.01852578 32.62893016 77.63466633 37.71484375 79.01171875 C40.05006413 79.54117178 42.3913177 80.04483467 44.73828125 80.51953125 C47.46875 81.1328125 47.46875 81.1328125 48.46875 82.1328125 C48.7631237 86.61474525 48.78321752 91.10290102 48.81884766 95.59326172 C48.83521728 97.09830391 48.86224772 98.60327479 48.90087891 100.10791016 C49.1917333 111.50687339 47.63843484 119.79344282 42.46875 130.1328125 C41.80875 130.1328125 41.14875 130.1328125 40.46875 130.1328125 C40.2625 130.6896875 40.05625 131.2465625 39.84375 131.8203125 C37.41346007 135.9076183 33.95489354 138.63743132 29.46875 140.1328125 C22.41813918 140.60750709 22.41813918 140.60750709 19.46875 139.1328125 C19.46875 138.4728125 19.46875 137.8128125 19.46875 137.1328125 C20.12875 136.9265625 20.78875 136.7203125 21.46875 136.5078125 C24.97929439 134.89881299 27.69420542 132.77671237 30.69921875 130.375 C32.46875 129.1328125 32.46875 129.1328125 34.46875 129.1328125 C36.33257956 125.54852488 37.88630568 121.84811655 39.46875 118.1328125 C39.79875 117.4728125 40.12875 116.8128125 40.46875 116.1328125 C40.55434118 113.95456289 40.57588412 111.77365995 40.56640625 109.59375 C40.56318359 108.29179688 40.55996094 106.98984375 40.55664062 105.6484375 C40.54828466 104.26822851 40.53981971 102.88802018 40.53125 101.5078125 C40.52623501 100.11979324 40.5216721 98.73177228 40.51757812 97.34375 C40.50575976 93.94006118 40.48928434 90.53645811 40.46875 87.1328125 C39.58759521 86.80958008 38.70644043 86.48634766 37.79858398 86.15332031 C36.63657471 85.71858398 35.47456543 85.28384766 34.27734375 84.8359375 C33.12806396 84.40958008 31.97878418 83.98322266 30.79467773 83.54394531 C22.97847682 80.22766833 18.02450216 75.29916339 13.7578125 68.05078125 C12.45400873 65.84770953 12.45400873 65.84770953 9.46875 64.1328125 C9.46875 63.4728125 9.46875 62.8128125 9.46875 62.1328125 C8.71980469 61.92398438 7.97085938 61.71515625 7.19921875 61.5 C3.62222684 59.7089454 2.67785986 57.744165 0.78125 54.2578125 C0.19988281 53.20851562 -0.38148437 52.15921875 -0.98046875 51.078125 C-1.49222656 50.10617188 -2.00398438 49.13421875 -2.53125 48.1328125 C-2.90636719 47.48183594 -3.28148437 46.83085938 -3.66796875 46.16015625 C-7.75829144 36.55437582 -6.71205397 23.87929976 -6.71875 13.6953125 C-6.71955566 12.479646 -6.72036133 11.26397949 -6.72119141 10.01147461 C-6.6572394 0.00724964 -6.6572394 0.00724964 0 0 Z " fill="#FC1A47" transform="translate(44.53125,14.8671875)"/>
<path d="M0 0 C3.3 0 6.6 0 10 0 C10.14946681 5.92233502 10.25773993 11.84354787 10.32958984 17.76733398 C10.35957251 19.77794546 10.40037366 21.78842826 10.45263672 23.79858398 C11.02579562 46.42712206 11.02579562 46.42712206 4 54 C2.68 54.66 1.36 55.32 0 56 C0 37.52 0 19.04 0 0 Z " fill="#F2E8EB" transform="translate(135,19)"/>
<path d="M0 0 C3.3 0 6.6 0 10 0 C10 18.15 10 36.3 10 55 C8.35 53.68 6.7 52.36 5 51 C5 50.34 5 49.68 5 49 C4.34 49 3.68 49 3 49 C0.48075477 42.64198992 -0.42029695 37.18408391 -0.29296875 30.37109375 C-0.28872391 29.49598648 -0.28447906 28.62087921 -0.28010559 27.71925354 C-0.26347981 24.95833928 -0.22585966 22.19818895 -0.1875 19.4375 C-0.17243228 17.55144293 -0.15874756 15.66537427 -0.14648438 13.77929688 C-0.11362937 9.18590917 -0.06196135 4.59308353 0 0 Z " fill="#F3EFF0" transform="translate(46,20)"/>
<path d="M0 0 C5.61 0 11.22 0 17 0 C17 0.33 17 0.66 17 1 C14.03 1 11.06 1 8 1 C7.95027534 6.81663796 7.91412748 12.63315004 7.89013672 18.44995117 C7.8801271 20.42555906 7.86651531 22.40115231 7.84912109 24.37670898 C7.82464991 27.22904082 7.81346624 30.08117547 7.8046875 32.93359375 C7.79436493 33.80584091 7.78404236 34.67808807 7.77340698 35.57676697 C7.77237089 41.33941505 8.57422041 46.41281875 10 52 C10.66 52 11.32 52 12 52 C13.25390625 53.390625 13.25390625 53.390625 14.5625 55.25 C14.99691406 55.85328125 15.43132813 56.4565625 15.87890625 57.078125 C17.03255742 59.05581272 17.55972779 60.76401078 18 63 C16.515 62.505 16.515 62.505 15 62 C15 61.34 15 60.68 15 60 C14.25105469 59.79117188 13.50210938 59.58234375 12.73046875 59.3671875 C9.15347684 57.5761329 8.20910986 55.6113525 6.3125 52.125 C5.73113281 51.07570312 5.14976563 50.02640625 4.55078125 48.9453125 C4.03902344 47.97335938 3.52726562 47.00140625 3 46 C2.62230469 45.33742187 2.24460938 44.67484375 1.85546875 43.9921875 C-0.38068523 38.78470562 -0.1356473 33.10740199 -0.09765625 27.5390625 C-0.0962413 26.74849457 -0.09482635 25.95792664 -0.09336853 25.1434021 C-0.08780504 22.63722834 -0.07525944 20.13114642 -0.0625 17.625 C-0.05748028 15.91797005 -0.0529182 14.21093868 -0.04882812 12.50390625 C-0.03870171 8.3358743 -0.01911945 4.16803904 0 0 Z " fill="#FD0B3A" transform="translate(39,17)"/>
<path d="M0 0 C2.64 0 5.28 0 8 0 C8.12486865 5.33438866 8.21492871 10.66790158 8.2746582 16.00341797 C8.29959214 17.81313929 8.33355243 19.62276214 8.37719727 21.43212891 C8.66363141 33.62411382 8.47405946 44.24883489 0.61328125 54.32421875 C-0.52560547 55.49404297 -0.52560547 55.49404297 -1.6875 56.6875 C-2.45449219 57.49574219 -3.22148437 58.30398437 -4.01171875 59.13671875 C-6 61 -6 61 -8 62 C-8 61.34 -8 60.68 -8 60 C-8.66 59.67 -9.32 59.34 -10 59 C-9.34 59 -8.68 59 -8 59 C-7.67 58.01 -7.34 57.02 -7 56 C-6.34 56 -5.68 56 -5 56 C-4.9175 55.484375 -4.835 54.96875 -4.75 54.4375 C-4 52 -4 52 -1.97753906 49.00561523 C0.7448674 44.29094115 0.5065147 39.79524423 0.390625 34.47265625 C0.38496521 33.48373886 0.37930542 32.49482147 0.37347412 31.47593689 C0.35120015 28.33761857 0.30101998 25.20046943 0.25 22.0625 C0.22992342 19.92644886 0.21167468 17.7903797 0.1953125 15.65429688 C0.15136511 10.4358034 0.0845437 5.21798526 0 0 Z " fill="#FD0E3D" transform="translate(144,17)"/>
<path d="M0 0 C0.825 0.04125 1.65 0.0825 2.5 0.125 C4.3542837 0.125 6.20850159 0.09502629 8.0625 0.0625 C11.5 0.125 11.5 0.125 12.5 1.125 C12.57226502 2.97787502 12.5838122 4.83333878 12.5625 6.6875 C12.55347656 7.69941406 12.54445313 8.71132813 12.53515625 9.75390625 C12.52355469 10.53636719 12.51195313 11.31882812 12.5 12.125 C11.18 12.455 9.86 12.785 8.5 13.125 C8.44527912 14.52038254 8.40688462 15.91640897 8.375 17.3125 C8.34019531 18.47845703 8.34019531 18.47845703 8.3046875 19.66796875 C8.41855507 22.63828975 8.41855507 22.63828975 10.5 27.125 C6.54 27.125 2.58 27.125 -1.5 27.125 C-1.5 25.805 -1.5 24.485 -1.5 23.125 C-2.49 22.795 -3.48 22.465 -4.5 22.125 C-4.55790353 18.83340684 -4.59356261 15.54194397 -4.625 12.25 C-4.64175781 11.31285156 -4.65851563 10.37570313 -4.67578125 9.41015625 C-4.68544922 8.06630859 -4.68544922 8.06630859 -4.6953125 6.6953125 C-4.70578613 5.86789551 -4.71625977 5.04047852 -4.72705078 4.18798828 C-4.36675623 0.91434427 -3.2070553 0.16035276 0 0 Z " fill="#D9CAD0" transform="translate(91.5,41.875)"/>
<path d="M0 0 C0 1.98 0 3.96 0 6 C-2.45880088 5.5541259 -4.79470171 5.07178002 -7.15625 4.24609375 C-20.2400798 -0.26782753 -35.44879576 0.65857695 -48.3828125 5.125 C-51 6 -51 6 -54 6 C-54 4.02 -54 2.04 -54 0 C-34.93947993 -5.8293198 -19.04892027 -5.88436474 0 0 Z " fill="#FA466C" transform="translate(123,31)"/>
<path d="M0 0 C1.32 0 2.64 0 4 0 C3.98428955 1.26593994 3.9685791 2.53187988 3.95239258 3.83618164 C3.89790836 8.55307603 3.8635827 13.26994282 3.83520508 17.98706055 C3.82016053 20.02486862 3.79971988 22.06264454 3.77368164 24.1003418 C3.73710753 27.03702756 3.72023001 29.97328351 3.70703125 32.91015625 C3.69154739 33.81459976 3.67606354 34.71904327 3.66011047 35.65089417 C3.65794513 43.87260688 5.8503953 49.05047306 11.1875 55.4375 C12.26064453 56.73494141 12.26064453 56.73494141 13.35546875 58.05859375 C13.89816406 58.69925781 14.44085938 59.33992188 15 60 C12 60 12 60 9.5625 57.75 C8.716875 56.8425 7.87125 55.935 7 55 C5.948125 54.13375 5.948125 54.13375 4.875 53.25 C-0.16533521 47.20159774 -0.42689753 39.47816126 -0.29296875 31.93359375 C-0.28872391 31.01409439 -0.28447906 30.09459503 -0.28010559 29.14723206 C-0.26346776 26.24367541 -0.22584467 23.34084274 -0.1875 20.4375 C-0.17243386 18.45508823 -0.15874886 16.47266546 -0.14648438 14.49023438 C-0.11361326 9.65988222 -0.06193611 4.83006336 0 0 Z " fill="#F5E0E6" transform="translate(64,32)"/>
<path d="M0 0 C2.5 0.125 2.5 0.125 3.5 1.125 C3.62667764 4.11518161 3.68520838 7.07194108 3.6875 10.0625 C3.69974609 10.89974609 3.71199219 11.73699219 3.72460938 12.59960938 C3.72654297 13.40076172 3.72847656 14.20191406 3.73046875 15.02734375 C3.73457764 15.76460693 3.73868652 16.50187012 3.74291992 17.26147461 C3.5 19.125 3.5 19.125 1.5 21.125 C-1.125 21.25 -1.125 21.25 -3.5 21.125 C-3.52888146 17.81251813 -3.54675799 14.50006833 -3.5625 11.1875 C-3.57087891 10.24197266 -3.57925781 9.29644531 -3.58789062 8.32226562 C-3.59111328 7.42314453 -3.59433594 6.52402344 -3.59765625 5.59765625 C-3.60289307 4.76500244 -3.60812988 3.93234863 -3.61352539 3.07446289 C-3.43998941 0.09449563 -2.993647 0.14968235 0 0 Z " fill="#433F54" transform="translate(91.5,41.875)"/>
<path d="M0 0 C0 1.98 0 3.96 0 6 C-3.52146777 5.33893024 -6.93145017 4.4866905 -10.375 3.5 C-14.59292075 2.32994079 -18.65333763 1.48296249 -23 1 C-23 0.67 -23 0.34 -23 0 C-19.37 0 -15.74 0 -12 0 C-17.16815281 -2.05722588 -21.8922296 -2.41513319 -27.375 -2.625 C-28.20644531 -2.66367187 -29.03789063 -2.70234375 -29.89453125 -2.7421875 C-31.92935156 -2.83574246 -33.96464416 -2.91892713 -36 -3 C-36 -2.34 -36 -1.68 -36 -1 C-38.31 -1.33 -40.62 -1.66 -43 -2 C-31.69674422 -9.53550385 -11.96182206 -3.69510308 0 0 Z " fill="#FB345C" transform="translate(123,31)"/>
<path d="M0 0 C2.64 0.33 5.28 0.66 8 1 C8 16.51 8 32.02 8 48 C7.67 48 7.34 48 7 48 C7 32.82 7 17.64 7 2 C5.35 2 3.7 2 2 2 C2 14.21 2 26.42 2 39 C-0.52561648 35.21157527 -0.25391573 32.21466671 -0.1953125 27.83203125 C-0.1924826 27.03721848 -0.18965271 26.2424057 -0.18673706 25.42350769 C-0.17554705 22.88635162 -0.15044491 20.34954928 -0.125 17.8125 C-0.11496866 16.09180198 -0.10584308 14.37109841 -0.09765625 12.65039062 C-0.07561161 8.43345757 -0.04109006 4.21678875 0 0 Z " fill="#F4F9F9" transform="translate(47,20)"/>
<path d="M0 0 C0.99 0 1.98 0 3 0 C3.33 12.21 3.66 24.42 4 37 C2.68 36.67 1.36 36.34 0 36 C0 24.12 0 12.24 0 0 Z " fill="#F4F7F7" transform="translate(94,97)"/>
<path d="M0 0 C1.65 0 3.3 0 5 0 C5.33 6.6 5.66 13.2 6 20 C5.34 20 4.68 20 4 20 C4 19.01 4 18.02 4 17 C3.34 17 2.68 17 2 17 C2 18.32 2 19.64 2 21 C1.01 21 0.02 21 -1 21 C-0.67 14.07 -0.34 7.14 0 0 Z " fill="#4C4559" transform="translate(106,42)"/>
<path d="M0 0 C2.375 -0.125 2.375 -0.125 5 0 C7 2 7 2 7.125 5.125 C7.08375 6.07375 7.0425 7.0225 7 8 C6.01 8 5.02 8 4 8 C4 6.02 4 4.04 4 2 C3.34 2 2.68 2 2 2 C2 7.61 2 13.22 2 19 C2.66 19 3.32 19 4 19 C4 17.02 4 15.04 4 13 C4.99 13 5.98 13 7 13 C7.125 15.875 7.125 15.875 7 19 C6.34 19.66 5.68 20.32 5 21 C1.875 20.625 1.875 20.625 -1 20 C-1.02689449 17.04160645 -1.04678741 14.08345573 -1.0625 11.125 C-1.07087891 10.28324219 -1.07925781 9.44148438 -1.08789062 8.57421875 C-1.09111328 7.76855469 -1.09433594 6.96289062 -1.09765625 6.1328125 C-1.10289307 5.38918457 -1.10812988 4.64555664 -1.11352539 3.87939453 C-1 2 -1 2 0 0 Z " fill="#635F70" transform="translate(79,42)"/>
<path d="M0 0 C1.98 0 3.96 0 6 0 C7 1 7 1 7.09765625 3.50390625 C7.08605469 4.51324219 7.07445313 5.52257813 7.0625 6.5625 C7.05347656 7.57441406 7.04445313 8.58632813 7.03515625 9.62890625 C7.02355469 10.41136719 7.01195313 11.19382812 7 12 C5.35 12.33 3.7 12.66 2 13 C2 15.64 2 18.28 2 21 C1.34 21 0.68 21 0 21 C0 14.07 0 7.14 0 0 Z " fill="#5E596B" transform="translate(97,42)"/>
<path d="M0 0 C0.66 0 1.32 0 2 0 C-1.24765013 7.24475797 -7.93404843 10.85957708 -15 14 C-15.99 14 -16.98 14 -18 14 C-18.33 12.68 -18.66 11.36 -19 10 C-20.65 10 -22.3 10 -24 10 C-24 9.01 -24 8.02 -24 7 C-20.04 7 -16.08 7 -12 7 C-11.67 6.34 -11.34 5.68 -11 5 C-12.32 4.67 -13.64 4.34 -15 4 C-13.02 4 -11.04 4 -9 4 C-9 4.66 -9 5.32 -9 6 C-5.43072369 4.33433772 -2.71046962 2.8459931 0 0 Z " fill="#F3D1D9" transform="translate(139,147)"/>
<path d="M0 0 C0.99 0 1.98 0 3 0 C3.04934656 5.80239614 3.08569402 11.60467081 3.10986328 17.40722656 C3.11993627 19.38218309 3.13359521 21.35712466 3.15087891 23.33203125 C3.17507039 26.16670418 3.18646991 29.00118038 3.1953125 31.8359375 C3.20563507 32.72243988 3.21595764 33.60894226 3.22659302 34.52230835 C3.2269907 36.68285952 3.12272534 38.84293718 3 41 C2.34 41.66 1.68 42.32 1 43 C0.67 28.81 0.34 14.62 0 0 Z " fill="#F4FBFB" transform="translate(123,32)"/>
<path d="M0 0 C1.32979529 3.98938586 0.18256074 5.99243306 -1 10 C-1.42848801 12.66407764 -1.71734371 15.31476526 -2 18 C-2.66 18 -3.32 18 -4 18 C-3.67 28.23 -3.34 38.46 -3 49 C-8.14797054 41.27804419 -7.01293343 27.56304928 -5.63525391 18.63671875 C-4.33586182 12.24056129 -2.54012608 6.01849692 0 0 Z " fill="#FA4D71" transform="translate(27,71)"/>
<path d="M0 0 C1.65 0 3.3 0 5 0 C5.33 5.28 5.66 10.56 6 16 C4 16 2 16 0 16 C0 10.72 0 5.44 0 0 Z " fill="#474357" transform="translate(86,71)"/>
<path d="M0 0 C2.97 0.495 2.97 0.495 6 1 C5.01 1.33 4.02 1.66 3 2 C3.26040985 8.77065616 5.51333653 13.38317004 8.8203125 19.265625 C10 22 10 22 9.6796875 24.359375 C9.45539063 24.90078125 9.23109375 25.4421875 9 26 C8.34 24.02 7.68 22.04 7 20 C6.34 20 5.68 20 5 20 C4.35242375 18.56328432 3.70700547 17.12559584 3.0625 15.6875 C2.70285156 14.88699219 2.34320313 14.08648437 1.97265625 13.26171875 C1 11 1 11 0 8 C-0.66 8 -1.32 8 -2 8 C-1.34 5.36 -0.68 2.72 0 0 Z " fill="#F3D5DC" transform="translate(151,56)"/>
<path d="M0 0 C0.66 0.33 1.32 0.66 2 1 C2.50537423 2.61719752 2.9996238 4.23905237 3.42578125 5.87890625 C4.44401721 9.64014519 5.74561811 13.31211723 7 17 C6.39671875 16.66226563 5.7934375 16.32453125 5.171875 15.9765625 C2.40107401 14.73069874 0.87015101 15.20273583 -2 16 C-1.835 14.906875 -1.67 13.81375 -1.5 12.6875 C-0.93281816 9.12474127 -0.93281816 9.12474127 -1 6 C-1.99 6.33 -2.98 6.66 -4 7 C-2.92598892 4.08482708 -2.22189824 2.22189824 0 0 Z " fill="#F3CDD6" transform="translate(38,52)"/>
<path d="M0 0 C-1.2065625 0.37125 -1.2065625 0.37125 -2.4375 0.75 C-5.171081 1.72238859 -5.171081 1.72238859 -5.8125 4.125 C-5.874375 4.74375 -5.93625 5.3625 -6 6 C-5.38125 5.814375 -4.7625 5.62875 -4.125 5.4375 C-2 5 -2 5 0 6 C0 6.66 0 7.32 0 8 C2.475 8.495 2.475 8.495 5 9 C2.23547417 10.08724757 1.04676607 10.01466666 -1.83984375 9.109375 C-3.37318359 8.43648437 -3.37318359 8.43648437 -4.9375 7.75 C-5.95714844 7.31171875 -6.97679688 6.8734375 -8.02734375 6.421875 C-10.80243158 5.09450053 -13.39442828 3.63148137 -16 2 C-13.34549733 -0.65450267 -11.69774614 -0.41639121 -8 -0.6875 C-6.9275 -0.77386719 -5.855 -0.86023438 -4.75 -0.94921875 C-2 -1 -2 -1 0 0 Z " fill="#F3D4DC" transform="translate(76,155)"/>
<path d="M0 0 C2.85475306 -0.08156437 5.70713565 -0.14076372 8.5625 -0.1875 C9.36236328 -0.21263672 10.16222656 -0.23777344 10.98632812 -0.26367188 C16.44794805 -0.33054885 20.12924103 0.5090481 25 3 C21.74741974 3.99384397 18.96534629 4.04826731 15.578125 3.87890625 C14.04091797 3.80639648 14.04091797 3.80639648 12.47265625 3.73242188 C10.87744141 3.64831055 10.87744141 3.64831055 9.25 3.5625 C8.17105469 3.51029297 7.09210938 3.45808594 5.98046875 3.40429688 C3.32000578 3.27480531 0.65993548 3.13984639 -2 3 C-1.34 2.67 -0.68 2.34 0 2 C0 1.34 0 0.68 0 0 Z " fill="#FD0334" transform="translate(87,28)"/>
<path d="M0 0 C0.33 0.99 0.66 1.98 1 3 C-1.76171975 3.92057325 -3.42490433 4.12851977 -6.2734375 4.1328125 C-7.0984375 4.13410156 -7.9234375 4.13539063 -8.7734375 4.13671875 C-9.63195312 4.13285156 -10.49046875 4.12898437 -11.375 4.125 C-12.22578125 4.12886719 -13.0765625 4.13273438 -13.953125 4.13671875 C-18.09619909 4.13026536 -21.96064436 4.04724035 -26 3 C-26 2.67 -26 2.34 -26 2 C-13.13 1.01 -13.13 1.01 0 0 Z " fill="#F4C9D3" transform="translate(107,163)"/>
<path d="M0 0 C0.99 0 1.98 0 3 0 C3.33 0.66 3.66 1.32 4 2 C4.33 1.34 4.66 0.68 5 0 C5.66 0 6.32 0 7 0 C6.34 5.28 5.68 10.56 5 16 C4.01 16 3.02 16 2 16 C1.34 10.72 0.68 5.44 0 0 Z " fill="#4B465A" transform="translate(99,71)"/>
<path d="M0 0 C0.33 0 0.66 0 1 0 C1.33 12.87 1.66 25.74 2 39 C2.66 39 3.32 39 4 39 C4 42.3 4 45.6 4 49 C0.00325349 43.00488024 -0.28059354 37.6367236 -0.1953125 30.6640625 C-0.1924826 29.78471039 -0.18965271 28.90535828 -0.18673706 27.99935913 C-0.17559712 25.20776406 -0.15050411 22.4164971 -0.125 19.625 C-0.1149622 17.72526507 -0.10583775 15.82552508 -0.09765625 13.92578125 C-0.07567806 9.28372893 -0.0411911 4.64191998 0 0 Z " fill="#F699AD" transform="translate(46,20)"/>
<path d="M0 0 C0.66 0 1.32 0 2 0 C2.07409401 3.95092059 2.12857406 7.90157294 2.16479492 11.85302734 C2.18732251 13.85919374 2.2254357 15.86516526 2.26367188 17.87109375 C2.27333984 19.12792969 2.28300781 20.38476562 2.29296875 21.6796875 C2.3086792 22.84226074 2.32438965 24.00483398 2.34057617 25.20263672 C2.22818604 26.1257666 2.1157959 27.04889648 2 28 C1.01 28.66 0.02 29.32 -1 30 C-0.67 20.1 -0.34 10.2 0 0 Z " fill="#F4FBFB" transform="translate(83,102)"/>
<path d="M0 0 C1.32 0 2.64 0 4 0 C4 0.66 4 1.32 4 2 C3.34 2 2.68 2 2 2 C2.185625 2.886875 2.37125 3.77375 2.5625 4.6875 C2.98042484 7.85178811 2.80777742 9.94839642 2 13 C2.66 13 3.32 13 4 13 C4 13.99 4 14.98 4 16 C2.35 15.67 0.7 15.34 -1 15 C-1.02685412 12.68756208 -1.04632841 10.3750373 -1.0625 8.0625 C-1.07410156 6.77472656 -1.08570312 5.48695312 -1.09765625 4.16015625 C-1 1 -1 1 0 0 Z " fill="#595063" transform="translate(94,71)"/>
<path d="M0 0 C0.33 0 0.66 0 1 0 C0.96519531 0.88751953 0.96519531 0.88751953 0.9296875 1.79296875 C0.91164063 2.58316406 0.89359375 3.37335937 0.875 4.1875 C0.84019531 5.35345703 0.84019531 5.35345703 0.8046875 6.54296875 C0.91855507 9.51328975 0.91855507 9.51328975 3 14 C-0.96 14 -4.92 14 -9 14 C-9 12.68 -9 11.36 -9 10 C-6.525 10.495 -6.525 10.495 -4 11 C-3.67 10.01 -3.34 9.02 -3 8 C-2.01 8 -1.02 8 0 8 C0 5.36 0 2.72 0 0 Z " fill="#C3B8BF" transform="translate(99,55)"/>
<path d="M0 0 C0.33 0.66 0.66 1.32 1 2 C1.99 2.33 2.98 2.66 4 3 C3.01 3.495 3.01 3.495 2 4 C1.34227572 7.02934491 1.34227572 7.02934491 1 10 C0.67 10 0.34 10 0 10 C0 8.02 0 6.04 0 4 C-0.99 4 -1.98 4 -3 4 C-2.67 5.98 -2.34 7.96 -2 10 C-2.66 10 -3.32 10 -4 10 C-4 10.99 -4 11.98 -4 13 C-4.66 12.67 -5.32 12.34 -6 12 C-6 10.02 -6 8.04 -6 6 C-5.34 6 -4.68 6 -4 6 C-4 5.34 -4 4.68 -4 4 C-5.65 4.33 -7.3 4.66 -9 5 C-9 4.34 -9 3.68 -9 3 C-4.545 2.505 -4.545 2.505 0 2 C0 1.34 0 0.68 0 0 Z " fill="#E7D7DC" transform="translate(102,67)"/>
<path d="M0 0 C0.66 0.33 1.32 0.66 2 1 C-0.46166781 7.04227553 -6.2741518 11.98976661 -12 15 C-13.32 15 -14.64 15 -16 15 C-16.33 15.66 -16.66 16.32 -17 17 C-17 16.01 -17 15.02 -17 14 C-15.68 14 -14.36 14 -13 14 C-12.773125 13.401875 -12.54625 12.80375 -12.3125 12.1875 C-11 10 -11 10 -8.75 8.6875 C-5.04552638 6.41430028 -2.68771909 3.37119405 0 0 Z " fill="#F4E2E7" transform="translate(80,137)"/>
<path d="M0 0 C0.66 0 1.32 0 2 0 C-0.20948541 4.92885206 -3.12356782 7.6212526 -8 10 C-10.3125 9.6875 -10.3125 9.6875 -12 9 C-11.67 7.68 -11.34 6.36 -11 5 C-12.32 4.67 -13.64 4.34 -15 4 C-13.02 4 -11.04 4 -9 4 C-9 4.66 -9 5.32 -9 6 C-5.43072369 4.33433772 -2.71046962 2.8459931 0 0 Z " fill="#F3DFE4" transform="translate(139,147)"/>
<path d="M0 0 C0.99 0.33 1.98 0.66 3 1 C3 5.95 3 10.9 3 16 C2.01 16.33 1.02 16.66 0 17 C0 11.39 0 5.78 0 0 Z " fill="#C5BDC4" transform="translate(90,44)"/>
<path d="M0 0 C1.05320435 0.05184448 1.05320435 0.05184448 2.12768555 0.10473633 C5.74940579 0.34408404 7.53971876 0.63064584 10.625 2.6875 C2.705 2.3575 -5.215 2.0275 -13.375 1.6875 C-13.375 2.3475 -13.375 3.0075 -13.375 3.6875 C-15.685 3.3575 -17.995 3.0275 -20.375 2.6875 C-14.36963802 -1.31607465 -6.94873657 -0.37870966 0 0 Z " fill="#F86A89" transform="translate(100.375,26.3125)"/>
<path d="M0 0 C0.33 0.66 0.66 1.32 1 2 C0.34 2 -0.32 2 -1 2 C-0.67 2.99 -0.34 3.98 0 5 C-0.66 5.66 -1.32 6.32 -2 7 C-3.01388526 12.27086043 -3.28285758 17.5876196 -3.5625 22.9375 C-3.60568359 23.71673828 -3.64886719 24.49597656 -3.69335938 25.29882812 C-3.79828077 27.19907117 -3.8995245 29.09951669 -4 31 C-4.33 31 -4.66 31 -5 31 C-5.0588996 27.68757688 -5.09389398 24.37529149 -5.125 21.0625 C-5.14175781 20.13630859 -5.15851562 19.21011719 -5.17578125 18.25585938 C-5.26022983 6.22193651 -5.26022983 6.22193651 -3 1 C-2.01 0.67 -1.02 0.34 0 0 Z " fill="#F5AEBE" transform="translate(33,79)"/>
<path d="M0 0 C0.33 0 0.66 0 1 0 C1.04898438 1.07121094 1.09796875 2.14242187 1.1484375 3.24609375 C1.22345294 4.64325639 1.2990013 6.0403905 1.375 7.4375 C1.4059375 8.14455078 1.436875 8.85160156 1.46875 9.58007812 C1.57280629 11.39239188 1.77919892 13.19817988 2 15 C2.66 15.33 3.32 15.66 4 16 C4 14.02 4 12.04 4 10 C4.99 10 5.98 10 7 10 C7.125 12.875 7.125 12.875 7 16 C6.34 16.66 5.68 17.32 5 18 C3.35 17.67 1.7 17.34 0 17 C0 11.39 0 5.78 0 0 Z " fill="#38334A" transform="translate(79,45)"/>
<path d="M0 0 C0.33 0.66 0.66 1.32 1 2 C1.66 2 2.32 2 3 2 C6.83475261 6.24132879 10.25078379 10.98672339 13 16 C9.16780823 14.43873668 6.82638778 11.97133075 4 9 C3.13375 8.2884375 3.13375 8.2884375 2.25 7.5625 C0.39568994 5.24461242 0.32126462 2.8913816 0 0 Z " fill="#F3D8DF" transform="translate(66,77)"/>
<path d="M0 0 C0.474375 0.639375 0.94875 1.27875 1.4375 1.9375 C2.83738726 3.88293306 2.83738726 3.88293306 4 5 C4.07205511 6.68608966 4.08386068 8.37500659 4.0625 10.0625 C4.05347656 10.98160156 4.04445313 11.90070312 4.03515625 12.84765625 C4.02355469 13.55792969 4.01195313 14.26820312 4 15 C3.01 15 2.02 15 1 15 C-0.32286246 10.03926578 -0.08893197 5.08888488 0 0 Z " fill="#776E7E" transform="translate(106,42)"/>
<path d="M0 0 C1 3 1 3 -0.125 5.9375 C-2.1006441 9.16438537 -3.96202631 10.79746907 -7 13 C-8.0173873 13.98230498 -9.02596117 14.97469597 -10 16 C-10.33 15.01 -10.66 14.02 -11 13 C-10.27683594 12.31164062 -10.27683594 12.31164062 -9.5390625 11.609375 C-8.59160156 10.68898438 -8.59160156 10.68898438 -7.625 9.75 C-6.99851562 9.14671875 -6.37203125 8.5434375 -5.7265625 7.921875 C-4.02689839 6.0299412 -3.01540134 4.31798691 -2 2 C-1.34 2 -0.68 2 0 2 C0 1.34 0 0.68 0 0 Z " fill="#F4D4DC" transform="translate(125,76)"/>
<path d="M0 0 C0.66 0 1.32 0 2 0 C2 4.95 2 9.9 2 15 C-1 12 -1 12 -1.328125 9.84375 C-1.30234375 9.0703125 -1.2765625 8.296875 -1.25 7.5 C-1.23453125 6.7265625 -1.2190625 5.953125 -1.203125 5.15625 C-1 3 -1 3 0 0 Z " fill="#FB2D58" transform="translate(127,17)"/>
<path d="M0 0 C2.97 0 5.94 0 9 0 C9.33 0.66 9.66 1.32 10 2 C5.05 3.485 5.05 3.485 0 5 C0 3.35 0 1.7 0 0 Z " fill="#FD0637" transform="translate(70,31)"/>
<path d="M0 0 C1.32 0 2.64 0 4 0 C4 4.62 4 9.24 4 14 C3.67 14 3.34 14 3 14 C2.67 11.03 2.34 8.06 2 5 C1.34 5.66 0.68 6.32 0 7 C0 4.69 0 2.38 0 0 Z " fill="#332E45" transform="translate(107,42)"/>
<path d="M0 0 C4.3548639 0.85019035 6.76521271 2.9808652 10 6 C10.33 6.99 10.66 7.98 11 9 C5.70841026 7.59928507 3.22521956 4.14512755 0 0 Z " fill="#F3DFE5" transform="translate(111,141)"/>
<path d="M0 0 C0.99 0.33 1.98 0.66 3 1 C-1.18461538 6.78461538 -1.18461538 6.78461538 -5.3125 7.875 C-6.6428125 7.936875 -6.6428125 7.936875 -8 8 C-5.33333333 5.33333333 -2.66666667 2.66666667 0 0 Z " fill="#F3D1D9" transform="translate(128,88)"/>
<path d="M0 0 C0.66 0.33 1.32 0.66 2 1 C2.36923077 5.55384615 2.36923077 5.55384615 0.5 7.8125 C0.005 8.204375 -0.49 8.59625 -1 9 C-1 8.01 -1 7.02 -1 6 C-1.99 6.33 -2.98 6.66 -4 7 C-2.92598892 4.08482708 -2.22189824 2.22189824 0 0 Z " fill="#F3E0E6" transform="translate(38,52)"/>
<path d="M0 0 C1.2065625 0.0309375 1.2065625 0.0309375 2.4375 0.0625 C1.79296875 0.39894531 1.1484375 0.73539063 0.484375 1.08203125 C-2.46340895 3.93418099 -2.23273693 6.86698867 -2.3125 10.75 C-2.34214844 11.45189453 -2.37179688 12.15378906 -2.40234375 12.87695312 C-2.47287033 14.60485424 -2.51997068 16.3336832 -2.5625 18.0625 C-2.8925 18.0625 -3.2225 18.0625 -3.5625 18.0625 C-3.58934312 15.24993719 -3.60926188 12.43762759 -3.625 9.625 C-3.63337891 8.82255859 -3.64175781 8.02011719 -3.65039062 7.19335938 C-3.6590143 5.14954779 -3.6147815 3.10566098 -3.5625 1.0625 C-2.5625 0.0625 -2.5625 0.0625 0 0 Z " fill="#322D44" transform="translate(91.5625,41.9375)"/>
<path d="M0 0 C0.91026797 3.07215439 1.25288404 5.79680216 1 9 C0.34 9.66 -0.32 10.32 -1 11 C-1.33 11.66 -1.66 12.32 -2 13 C-2.66 13 -3.32 13 -4 13 C-3.52140759 11.39566191 -3.04210442 9.79153584 -2.5625 8.1875 C-2.29566406 7.29417969 -2.02882813 6.40085938 -1.75390625 5.48046875 C-1.19612127 3.64526945 -0.60655425 1.81966274 0 0 Z " fill="#F4B6C4" transform="translate(92,130)"/>
<path d="M0 0 C2.70269923 2.70269923 3.70570258 5.4252738 5 9 C4.6875 11.4375 4.6875 11.4375 4 13 C3.34 11.02 2.68 9.04 2 7 C1.34 7 0.68 7 0 7 C0 4.69 0 2.38 0 0 Z " fill="#F5ACBC" transform="translate(156,69)"/>
<path d="M0 0 C0.66 0 1.32 0 2 0 C1.690625 0.598125 1.38125 1.19625 1.0625 1.8125 C-0.10209704 4.08956772 -0.10209704 4.08956772 -1 7 C-3.0625 8.1875 -3.0625 8.1875 -5 9 C-4.67 7.35 -4.34 5.7 -4 4 C-3.34 4 -2.68 4 -2 4 C-1.34 2.68 -0.68 1.36 0 0 Z " fill="#F3E4E9" transform="translate(140,66)"/>
<path d="M0 0 C0.66 0 1.32 0 2 0 C2 3.3 2 6.6 2 10 C1.67 8.68 1.34 7.36 1 6 C0.01 6 -0.98 6 -2 6 C-2 5.01 -2 4.02 -2 3 C-1.34 3 -0.68 3 0 3 C0 2.01 0 1.02 0 0 Z " fill="#F4FAFA" transform="translate(98,77)"/>
<path d="M0 0 C0.33 0.99 0.66 1.98 1 3 C1.66 3 2.32 3 3 3 C3 6.3 3 9.6 3 13 C-0.22430866 8.16353702 -0.09242903 5.73060016 0 0 Z " fill="#F3C2CD" transform="translate(47,56)"/>
<path d="M0 0 C0 0.66 0 1.32 0 2 C1.65 2.33 3.3 2.66 5 3 C1.69564916 4.12377697 -0.0506862 3.89554742 -3.25 2.5625 C-3.95640625 2.27503906 -4.6628125 1.98757812 -5.390625 1.69140625 C-5.92171875 1.46324219 -6.4528125 1.23507813 -7 1 C-3.375 -1.125 -3.375 -1.125 0 0 Z " fill="#F4C4CF" transform="translate(76,161)"/>
<path d="M0 0 C2.50298434 2.93828597 3.46930939 5.17902761 4 9 C2.68 8.34 1.36 7.68 0 7 C0 4.69 0 2.38 0 0 Z " fill="#F5C7D1" transform="translate(100,136)"/>
<path d="M0 0 C0 0.66 0 1.32 0 2 C-3.08809695 3.76462683 -4.23312136 4 -8 4 C-7.67 3.01 -7.34 2.02 -7 1 C-4 0 -4 0 0 0 Z " fill="#F2E5E9" transform="translate(121,160)"/>
<path d="M0 0 C0.99 0 1.98 0 3 0 C3 1.65 3 3.3 3 5 C2.01 5 1.02 5 0 5 C-0.33 6.32 -0.66 7.64 -1 9 C-0.67 6.03 -0.34 3.06 0 0 Z " fill="#726C7C" transform="translate(87,73)"/>
<path d="M0 0 C2.31 0.33 4.62 0.66 7 1 C7 1.66 7 2.32 7 3 C4.69 3.33 2.38 3.66 0 4 C0 2.68 0 1.36 0 0 Z " fill="#95919C" transform="translate(90,65)"/>
<path d="M0 0 C-3.36423277 2.96052484 -6.69159287 3.92289822 -11 5 C-11 4.34 -11 3.68 -11 3 C-7.14243493 0.84694043 -4.44870215 -0.39253254 0 0 Z " fill="#F4F9F9" transform="translate(80,35)"/>
<path d="M0 0 C1.45945288 0.08708669 2.91765868 0.19526907 4.375 0.3125 C5.59316406 0.39951172 5.59316406 0.39951172 6.8359375 0.48828125 C9 1 9 1 11 4 C9.53984709 3.71758359 8.08190207 3.42373386 6.625 3.125 C5.81289062 2.96257813 5.00078125 2.80015625 4.1640625 2.6328125 C2 2 2 2 0 0 Z " fill="#F4F8F9" transform="translate(111,35)"/>
<path d="M0 0 C0.99 0 1.98 0 3 0 C3 0.66 3 1.32 3 2 C0.04518508 4.74375671 -0.77471908 5 -5 5 C-5.33 5.66 -5.66 6.32 -6 7 C-6 6.01 -6 5.02 -6 4 C-4.68 4 -3.36 4 -2 4 C-1.34 2.68 -0.68 1.36 0 0 Z " fill="#F4C4CF" transform="translate(69,147)"/>
<path d="M0 0 C2.11007147 1.74310252 2.95559826 2.86337925 3.8125 5.5 C4 8 4 8 2 11 C0.19769832 7.17010894 -0.19622241 4.21878192 0 0 Z " fill="#F4B3C2" transform="translate(29,110)"/>
<path d="M0 0 C0.66 0 1.32 0 2 0 C3.38232443 1.62626404 4.71937515 3.2925002 6 5 C5.67 5.66 5.34 6.32 5 7 C2.5 5.75 2.5 5.75 0 4 C0 2.68 0 1.36 0 0 Z " fill="#F5DEE4" transform="translate(39,62)"/>
<path d="M0 0 C2.99324263 1.0975223 3.84610901 1.67682892 5.25 4.625 C5.4975 5.40875 5.745 6.1925 6 7 C3.00675737 5.9024777 2.15389099 5.32317108 0.75 2.375 C0.5025 1.59125 0.255 0.8075 0 0 Z " fill="#F2E5E9" transform="translate(55,80)"/>
<path d="M0 0 C0.99 0 1.98 0 3 0 C3.33 1.32 3.66 2.64 4 4 C3.34 4 2.68 4 2 4 C2 4.99 2 5.98 2 7 C1.34 6.67 0.68 6.34 0 6 C0 4.02 0 2.04 0 0 Z " fill="#E4DDE1" transform="translate(96,73)"/>
<path d="M0 0 C0 0.66 0 1.32 0 2 C-2 3.625 -2 3.625 -4 5 C-5.32 4.34 -6.64 3.68 -8 3 C-2.25 0 -2.25 0 0 0 Z " fill="#F3D0D8" transform="translate(118,97)"/>
<path d="M0 0 C2.97 0 5.94 0 9 0 C5.99382731 3.00617269 3.17618402 2.59585316 -1 3 C-0.67 2.01 -0.34 1.02 0 0 Z " fill="#EFC4CE" transform="translate(100,94)"/>
<path d="M0 0 C0.99 0 1.98 0 3 0 C2.67 2.64 2.34 5.28 2 8 C0.23537317 4.91190305 0 3.76687864 0 0 Z " fill="#686475" transform="translate(99,71)"/>
<path d="M0 0 C0.33 0.66 0.66 1.32 1 2 C1.99 2.33 2.98 2.66 4 3 C3.01 3.495 3.01 3.495 2 4 C1.34227572 7.02934491 1.34227572 7.02934491 1 10 C0.67 10 0.34 10 0 10 C0 6.7 0 3.4 0 0 Z " fill="#D5CCD1" transform="translate(102,67)"/>
<path d="M0 0 C1.485 0.99 1.485 0.99 3 2 C3.1875 5.125 3.1875 5.125 3 8 C0.9375 5.6875 0.9375 5.6875 -1 3 C-0.67 2.01 -0.34 1.02 0 0 Z " fill="#F3DFE4" transform="translate(153,65)"/>
</svg>
